<svg width="500.505" height="76.201" viewBox="0 0 500.505 76.201" xmlns="http://www.w3.org/2000/svg"><g id="svgGroup" stroke-linecap="round" fill-rule="evenodd" font-size="9pt" stroke="#e60b33" stroke-width="0.25mm" fill="#c71838" style="stroke:#e60b33;stroke-width:0.25mm;fill:#c71838"><path d="M 250.9 71.6 L 251 70.2 A 108.924 108.924 0 0 1 248.281 71.515 Q 245.553 72.786 243.534 73.503 A 31.659 31.659 0 0 1 243.4 73.55 A 16.308 16.308 0 0 1 240.911 74.19 Q 239.632 74.421 238.143 74.522 A 36.18 36.18 0 0 1 235.7 74.6 A 24.143 24.143 0 0 1 232.468 74.396 Q 230.78 74.168 229.366 73.684 A 12.458 12.458 0 0 1 228.05 73.15 A 12.393 12.393 0 0 1 225.157 71.202 Q 224.035 70.207 222.983 68.873 A 22.983 22.983 0 0 1 222.4 68.1 A 9.207 9.207 0 0 1 221.198 66.141 Q 220.319 64.25 219.85 61.5 A 60.652 60.652 0 0 1 219.364 58.107 Q 219.183 56.493 219.126 55.062 A 31.834 31.834 0 0 1 219.1 53.8 L 219.1 36.4 L 219.1 19.6 A 6.46 6.46 0 0 1 219.122 19.049 Q 219.187 18.288 219.45 17.95 A 1.494 1.494 0 0 1 219.859 17.594 Q 220.048 17.479 220.29 17.393 A 3.36 3.36 0 0 1 220.6 17.3 Q 220.89 17.203 221.646 17.2 A 12.398 12.398 0 0 1 221.7 17.2 L 224.7 17.3 A 2.447 2.447 0 0 1 225.373 17.384 Q 226.4 17.679 226.4 19 L 226.1 33.3 A 330.047 330.047 0 0 0 225.969 36.163 Q 225.8 40.25 225.8 43.1 L 225.7 50.1 Q 225.7 58.341 226.743 61.447 A 6.376 6.376 0 0 0 227 62.1 A 36.046 36.046 0 0 0 227.75 63.525 Q 228.49 64.852 229.138 65.688 A 8.77 8.77 0 0 0 229.35 65.95 A 5.6 5.6 0 0 0 231.416 67.475 A 7.091 7.091 0 0 0 232.15 67.75 A 9.416 9.416 0 0 0 233.395 68.04 Q 234.931 68.3 237.2 68.3 A 20.065 20.065 0 0 0 242.102 67.669 A 24.746 24.746 0 0 0 244.45 66.95 A 41.294 41.294 0 0 0 248.819 65.099 A 33.983 33.983 0 0 0 251.2 63.8 Q 251.5 56.6 251.5 46 Q 251.5 36.6 251.1 25.4 L 250.9 18.1 A 1.179 1.179 0 0 1 251.034 17.52 Q 251.303 17.035 252.108 16.93 A 3.788 3.788 0 0 1 252.6 16.9 L 254.7 16.9 Q 255.5 16.9 256.7 16.95 Q 257.9 17 259.4 16.9 L 259.9 16.9 Q 260.886 16.9 260.988 17.623 A 1.265 1.265 0 0 1 261 17.8 L 261 21.4 L 261.1 26.2 A 2345.598 2345.598 0 0 1 261.242 30.839 Q 261.575 42.152 261.504 44.38 A 12.014 12.014 0 0 1 261.5 44.5 L 261.5 71.2 A 5.947 5.947 0 0 1 261.553 71.614 Q 261.597 72.079 261.6 72.71 A 19.46 19.46 0 0 1 261.6 72.8 A 6.46 6.46 0 0 1 261.578 73.351 Q 261.513 74.112 261.25 74.45 A 1.023 1.023 0 0 1 260.82 74.765 Q 260.492 74.9 260 74.9 A 297.721 297.721 0 0 0 258.264 74.842 Q 254.167 74.717 252.5 74.8 A 4.282 4.282 0 0 1 252.333 74.811 Q 251.77 74.836 251.442 74.687 A 0.727 0.727 0 0 1 251.05 74.3 A 2.607 2.607 0 0 1 250.887 73.72 Q 250.823 73.331 250.849 72.868 A 5.092 5.092 0 0 1 250.85 72.85 Q 250.898 72.032 250.9 71.631 A 6.788 6.788 0 0 0 250.9 71.6 Z M 390.9 71.6 L 391 70.2 A 108.924 108.924 0 0 1 388.281 71.515 Q 385.553 72.786 383.534 73.503 A 31.659 31.659 0 0 1 383.4 73.55 A 16.308 16.308 0 0 1 380.911 74.19 Q 379.632 74.421 378.143 74.522 A 36.18 36.18 0 0 1 375.7 74.6 A 24.143 24.143 0 0 1 372.468 74.396 Q 370.78 74.168 369.366 73.684 A 12.458 12.458 0 0 1 368.05 73.15 A 12.393 12.393 0 0 1 365.157 71.202 Q 364.035 70.207 362.983 68.873 A 22.983 22.983 0 0 1 362.4 68.1 A 9.207 9.207 0 0 1 361.198 66.141 Q 360.319 64.25 359.85 61.5 A 60.652 60.652 0 0 1 359.364 58.107 Q 359.183 56.493 359.126 55.062 A 31.834 31.834 0 0 1 359.1 53.8 L 359.1 36.4 L 359.1 19.6 A 6.46 6.46 0 0 1 359.122 19.049 Q 359.187 18.288 359.45 17.95 A 1.494 1.494 0 0 1 359.859 17.594 Q 360.048 17.479 360.29 17.393 A 3.36 3.36 0 0 1 360.6 17.3 Q 360.89 17.203 361.646 17.2 A 12.398 12.398 0 0 1 361.7 17.2 L 364.7 17.3 A 2.447 2.447 0 0 1 365.373 17.384 Q 366.4 17.679 366.4 19 L 366.1 33.3 A 330.047 330.047 0 0 0 365.969 36.163 Q 365.8 40.25 365.8 43.1 L 365.7 50.1 Q 365.7 58.341 366.743 61.447 A 6.376 6.376 0 0 0 367 62.1 A 36.046 36.046 0 0 0 367.75 63.525 Q 368.49 64.852 369.138 65.688 A 8.77 8.77 0 0 0 369.35 65.95 A 5.6 5.6 0 0 0 371.416 67.475 A 7.091 7.091 0 0 0 372.15 67.75 A 9.416 9.416 0 0 0 373.395 68.04 Q 374.931 68.3 377.2 68.3 A 20.065 20.065 0 0 0 382.102 67.669 A 24.746 24.746 0 0 0 384.45 66.95 A 41.294 41.294 0 0 0 388.819 65.099 A 33.983 33.983 0 0 0 391.2 63.8 Q 391.5 56.6 391.5 46 Q 391.5 36.6 391.1 25.4 L 390.9 18.1 A 1.179 1.179 0 0 1 391.034 17.52 Q 391.303 17.035 392.108 16.93 A 3.788 3.788 0 0 1 392.6 16.9 L 394.7 16.9 Q 395.5 16.9 396.7 16.95 Q 397.9 17 399.4 16.9 L 399.9 16.9 Q 400.886 16.9 400.988 17.623 A 1.265 1.265 0 0 1 401 17.8 L 401 21.4 L 401.1 26.2 A 2345.598 2345.598 0 0 1 401.242 30.839 Q 401.575 42.152 401.504 44.38 A 12.014 12.014 0 0 1 401.5 44.5 L 401.5 71.2 A 5.947 5.947 0 0 1 401.553 71.614 Q 401.597 72.079 401.6 72.71 A 19.46 19.46 0 0 1 401.6 72.8 A 6.46 6.46 0 0 1 401.578 73.351 Q 401.513 74.112 401.25 74.45 A 1.023 1.023 0 0 1 400.82 74.765 Q 400.492 74.9 400 74.9 A 297.721 297.721 0 0 0 398.264 74.842 Q 394.167 74.717 392.5 74.8 A 4.282 4.282 0 0 1 392.333 74.811 Q 391.77 74.836 391.442 74.687 A 0.727 0.727 0 0 1 391.05 74.3 A 2.607 2.607 0 0 1 390.887 73.72 Q 390.823 73.331 390.849 72.868 A 5.092 5.092 0 0 1 390.85 72.85 Q 390.898 72.032 390.9 71.631 A 6.788 6.788 0 0 0 390.9 71.6 Z M 9.2 73.5 L 1.9 73.6 A 6.866 6.866 0 0 1 1.467 73.548 Q 0.834 73.449 0.606 73.256 A 0.455 0.455 0 0 1 0.55 73.2 A 0.989 0.989 0 0 1 0.368 72.857 Q 0.324 72.713 0.308 72.54 A 2.141 2.141 0 0 1 0.3 72.35 L 0.3 71.6 L 0.2 66.3 A 33.217 33.217 0 0 0 0.186 65.306 Q 0.163 64.525 0.1 63.9 L 0 57.1 Q 0 55.6 0.15 54.05 Q 0.294 52.558 0.3 51.853 A 6.991 6.991 0 0 0 0.3 51.8 Q 0.6 49.5 0.6 46.6 L 0.5 35.2 L 0.6 28.6 Q 0.753 25.078 0.789 22.846 A 78.053 78.053 0 0 0 0.8 21.6 Q 0.8 17.75 0.705 12.671 A 845.402 845.402 0 0 0 0.6 7.8 A 11.283 11.283 0 0 1 0.625 7.022 Q 0.705 5.873 1.042 5.411 A 1.054 1.054 0 0 1 1.05 5.4 Q 1.5 4.8 2.4 4.8 A 7.944 7.944 0 0 1 3.328 4.856 A 9.141 9.141 0 0 1 3.65 4.9 A 7.79 7.79 0 0 0 4.219 4.965 Q 4.526 4.989 4.875 4.997 A 14.98 14.98 0 0 0 5.2 5 L 12.8 4.8 L 19.2 4.6 A 34.347 34.347 0 0 0 20.433 4.577 Q 21.083 4.553 21.804 4.506 A 56.244 56.244 0 0 0 21.9 4.5 L 24.9 4.3 A 99.51 99.51 0 0 1 27.096 4.129 Q 29.056 4 30.5 4 L 38.9 4.1 A 5.28 5.28 0 0 1 39.682 4.153 Q 41.2 4.381 41.2 5.6 L 41.2 10.6 A 3.555 3.555 0 0 1 41.186 10.935 Q 41.132 11.501 40.877 11.637 A 0.35 0.35 0 0 1 40.85 11.65 Q 40.5 11.8 39.4 11.8 Q 38.283 11.8 37.387 11.726 A 16.581 16.581 0 0 1 37.1 11.7 L 30.7 11.6 Q 26.9 11.6 23.3 12 L 18.4 12.3 L 18.1 14.1 Q 17.9 16.3 17.9 17.6 L 17.8 26.5 L 17.7 31.6 L 17.7 34 A 71.899 71.899 0 0 0 18.681 33.994 Q 20.017 33.975 20.763 33.904 A 9.902 9.902 0 0 0 20.8 33.9 L 25.6 33.8 L 29.6 33.7 A 29.162 29.162 0 0 1 30.369 33.656 Q 31.232 33.618 32.389 33.606 A 106.569 106.569 0 0 1 33.5 33.6 A 10.069 10.069 0 0 1 34.192 33.622 Q 35.229 33.694 35.65 34 Q 36.16 34.371 36.197 35.171 A 2.772 2.772 0 0 1 36.2 35.3 L 36.1 38.6 A 2.216 2.216 0 0 1 36.068 38.99 Q 36.031 39.196 35.951 39.355 A 0.885 0.885 0 0 1 35.65 39.7 A 1.185 1.185 0 0 1 35.355 39.835 Q 34.839 40 33.8 40 A 57.009 57.009 0 0 1 32.937 39.994 Q 31.7 39.975 30.8 39.9 L 26.8 39.8 L 17.5 39.8 A 109.562 109.562 0 0 0 17.506 41.013 Q 17.525 42.7 17.6 43.6 L 17.7 49.9 L 17.6 54.8 Q 17.4 58 17.4 59.7 L 17.5 71.5 Q 17.5 72.8 16.95 73.3 Q 16.4 73.8 15.2 73.8 A 4.771 4.771 0 0 1 14.967 73.793 Q 14.385 73.764 13.008 73.612 A 115.454 115.454 0 0 1 12.9 73.6 A 9.722 9.722 0 0 0 12.415 73.561 Q 11.388 73.5 9.2 73.5 Z M 322.9 73.5 L 315.6 73.6 A 6.866 6.866 0 0 1 315.167 73.548 Q 314.534 73.449 314.306 73.256 A 0.455 0.455 0 0 1 314.25 73.2 A 0.989 0.989 0 0 1 314.068 72.857 Q 314.024 72.713 314.008 72.54 A 2.141 2.141 0 0 1 314 72.35 L 314 71.6 L 313.9 66.3 A 33.217 33.217 0 0 0 313.886 65.306 Q 313.863 64.525 313.8 63.9 L 313.7 57.1 Q 313.7 55.6 313.85 54.05 Q 313.994 52.558 314 51.853 A 6.991 6.991 0 0 0 314 51.8 Q 314.3 49.5 314.3 46.6 L 314.2 35.2 L 314.3 28.6 Q 314.453 25.078 314.489 22.846 A 78.053 78.053 0 0 0 314.5 21.6 Q 314.5 17.75 314.405 12.671 A 845.402 845.402 0 0 0 314.3 7.8 A 11.283 11.283 0 0 1 314.325 7.022 Q 314.405 5.873 314.742 5.411 A 1.054 1.054 0 0 1 314.75 5.4 Q 315.2 4.8 316.1 4.8 A 7.944 7.944 0 0 1 317.028 4.856 A 9.141 9.141 0 0 1 317.35 4.9 A 7.79 7.79 0 0 0 317.919 4.965 Q 318.226 4.989 318.575 4.997 A 14.98 14.98 0 0 0 318.9 5 L 326.5 4.8 L 332.9 4.6 A 34.347 34.347 0 0 0 334.133 4.577 Q 334.783 4.553 335.504 4.506 A 56.244 56.244 0 0 0 335.6 4.5 L 338.6 4.3 A 99.51 99.51 0 0 1 340.796 4.129 Q 342.756 4 344.2 4 L 352.6 4.1 A 5.28 5.28 0 0 1 353.382 4.153 Q 354.9 4.381 354.9 5.6 L 354.9 10.6 A 3.555 3.555 0 0 1 354.886 10.935 Q 354.832 11.501 354.577 11.637 A 0.35 0.35 0 0 1 354.55 11.65 Q 354.2 11.8 353.1 11.8 Q 351.983 11.8 351.087 11.726 A 16.581 16.581 0 0 1 350.8 11.7 L 344.4 11.6 Q 340.6 11.6 337 12 L 332.1 12.3 L 331.8 14.1 Q 331.6 16.3 331.6 17.6 L 331.5 26.5 L 331.4 31.6 L 331.4 34 A 71.899 71.899 0 0 0 332.381 33.994 Q 333.717 33.975 334.463 33.904 A 9.902 9.902 0 0 0 334.5 33.9 L 339.3 33.8 L 343.3 33.7 A 29.162 29.162 0 0 1 344.069 33.656 Q 344.932 33.618 346.089 33.606 A 106.569 106.569 0 0 1 347.2 33.6 A 10.069 10.069 0 0 1 347.892 33.622 Q 348.929 33.694 349.35 34 Q 349.86 34.371 349.897 35.171 A 2.772 2.772 0 0 1 349.9 35.3 L 349.8 38.6 A 2.216 2.216 0 0 1 349.768 38.99 Q 349.731 39.196 349.651 39.355 A 0.885 0.885 0 0 1 349.35 39.7 A 1.185 1.185 0 0 1 349.055 39.835 Q 348.539 40 347.5 40 A 57.009 57.009 0 0 1 346.637 39.994 Q 345.4 39.975 344.5 39.9 L 340.5 39.8 L 331.2 39.8 A 109.562 109.562 0 0 0 331.206 41.013 Q 331.225 42.7 331.3 43.6 L 331.4 49.9 L 331.3 54.8 Q 331.1 58 331.1 59.7 L 331.2 71.5 Q 331.2 72.8 330.65 73.3 Q 330.1 73.8 328.9 73.8 A 4.771 4.771 0 0 1 328.667 73.793 Q 328.085 73.764 326.708 73.612 A 115.454 115.454 0 0 1 326.6 73.6 A 9.722 9.722 0 0 0 326.115 73.561 Q 325.088 73.5 322.9 73.5 Z M 410.4 66.4 L 411.7 64.8 Q 412.16 64.155 413.299 62.748 A 148.479 148.479 0 0 1 413.5 62.5 A 1.045 1.045 0 0 1 413.809 62.282 A 0.94 0.94 0 0 1 414.2 62.2 Q 414.6 62.2 415.3 62.65 A 8.029 8.029 0 0 1 416.006 63.157 A 6.284 6.284 0 0 1 416.5 63.6 A 0.988 0.988 0 0 0 416.54 63.637 Q 416.731 63.806 417.65 64.55 Q 418.7 65.4 420.7 66.05 A 13.273 13.273 0 0 0 423.568 66.63 A 16.366 16.366 0 0 0 425.1 66.7 Q 428.3 66.7 430.6 65.45 Q 432.438 64.451 432.807 61.697 A 11.287 11.287 0 0 0 432.9 60.2 A 12.637 12.637 0 0 0 432.677 57.765 Q 432.352 56.106 431.55 54.8 Q 430.2 52.6 428.2 51.15 A 30.911 30.911 0 0 0 426.804 50.2 Q 425.106 49.106 422.7 47.8 Q 418.8 45.6 416.4 43.85 A 13.276 13.276 0 0 1 413.514 40.934 A 16.83 16.83 0 0 1 412.35 39.1 Q 410.825 36.327 410.709 32.358 A 22.637 22.637 0 0 1 410.7 31.7 A 16.381 16.381 0 0 1 411.74 25.808 A 15.216 15.216 0 0 1 413.5 22.5 A 17.665 17.665 0 0 1 419.97 16.916 A 21.477 21.477 0 0 1 421.15 16.35 A 25.226 25.226 0 0 1 429.192 14.318 A 30.496 30.496 0 0 1 431.9 14.2 Q 437.981 14.2 442.158 15.853 A 15.023 15.023 0 0 1 446.15 18.15 Q 451 22.1 451.2 22.2 A 1.236 1.236 0 0 1 451.411 22.397 A 0.769 0.769 0 0 1 451.6 22.9 Q 451.6 23.2 451.4 23.5 A 2.74 2.74 0 0 0 451.198 23.856 A 2.253 2.253 0 0 0 451.1 24.1 A 41.106 41.106 0 0 0 450.866 24.456 Q 450.463 25.075 449.75 26.2 A 27.551 27.551 0 0 1 449.297 26.894 Q 448.65 27.85 448.2 28.3 L 447.7 29.05 Q 447.4 29.5 447.15 29.6 A 1.217 1.217 0 0 1 446.941 29.661 Q 446.75 29.7 446.5 29.7 A 2.133 2.133 0 0 1 446.28 29.563 Q 445.765 29.213 444.37 28.091 A 161.54 161.54 0 0 1 443.7 27.55 Q 441.3 25.6 438.35 23.9 A 17.789 17.789 0 0 0 436.631 23.022 Q 434.791 22.214 433.349 22.2 A 5.222 5.222 0 0 0 433.3 22.2 A 5.199 5.199 0 0 0 432.137 22.321 Q 431.397 22.491 430.871 22.899 A 2.829 2.829 0 0 0 430.2 23.65 Q 429.3 25.1 429.3 28.5 A 8.618 8.618 0 0 0 429.513 30.466 A 6.332 6.332 0 0 0 430.5 32.7 Q 431.275 33.797 432.008 34.478 A 5.571 5.571 0 0 0 432.8 35.1 Q 433.9 35.8 437 37.4 A 60.939 60.939 0 0 1 440.26 38.828 Q 441.989 39.65 443.45 40.5 Q 446.2 42.1 448.75 46.1 A 14.881 14.881 0 0 1 450.537 50.259 Q 451.3 53.091 451.3 56.7 A 22.691 22.691 0 0 1 449.974 64.789 Q 446.211 74.688 431.766 75.606 A 48.356 48.356 0 0 1 428.7 75.7 Q 422.6 75.7 418.6 74.2 A 72.498 72.498 0 0 1 417.211 73.664 Q 415.08 72.814 414.179 72.258 A 3.214 3.214 0 0 1 413.75 71.95 A 19.197 19.197 0 0 1 413.359 71.593 Q 412.394 70.691 410.174 68.474 A 460.769 460.769 0 0 1 410 68.3 A 3.241 3.241 0 0 1 409.854 68.145 Q 409.441 67.673 409.7 67.5 A 3.007 3.007 0 0 1 409.902 67.094 Q 410.095 66.766 410.4 66.4 Z M 109.4 54.4 L 109.3 56.8 L 109.4 62.7 Q 109.553 65.763 109.589 67.711 A 59.54 59.54 0 0 1 109.6 68.8 L 109.5 71.8 A 4.991 4.991 0 0 1 109.361 72.639 Q 109.248 73.067 109.059 73.37 A 1.5 1.5 0 0 1 107.7 74.1 L 106.9 74 L 102.8 74 A 0.936 0.936 0 0 1 102.297 73.849 A 1.403 1.403 0 0 1 102.05 73.65 A 1.156 1.156 0 0 1 101.7 72.816 A 1.423 1.423 0 0 1 101.7 72.8 L 101.7 72 Q 96.755 73.401 93.44 74.123 A 61.339 61.339 0 0 1 92.1 74.4 A 33.613 33.613 0 0 1 89.175 74.827 Q 87.537 74.997 85.655 75.061 A 69.186 69.186 0 0 1 83.3 75.1 A 29.977 29.977 0 0 1 78.624 74.757 Q 76.103 74.359 74.046 73.496 A 14.906 14.906 0 0 1 71.6 72.2 Q 67.2 69.3 67.2 61.9 A 6.934 6.934 0 0 1 69.88 57.133 Q 71.567 55.752 74.3 54.8 A 40.775 40.775 0 0 1 82.938 52.851 A 52.318 52.318 0 0 1 89.1 52.5 Q 91.091 52.5 93.667 52.266 A 82.478 82.478 0 0 0 95.3 52.1 Q 98.9 51.7 101.9 51.7 A 262.69 262.69 0 0 0 101.596 45.404 Q 101.258 39.882 100.729 35.983 A 68.509 68.509 0 0 0 100.55 34.75 Q 99.6 28.6 97.35 25.5 A 7.202 7.202 0 0 0 92.117 22.461 A 9.896 9.896 0 0 0 91 22.4 Q 88 22.4 85.3 23.8 A 29.737 29.737 0 0 0 83.486 24.831 Q 81.492 26.051 78.963 27.929 A 97.292 97.292 0 0 0 78.6 28.2 L 75.3 30.6 A 0.174 0.174 0 0 0 75.247 30.612 Q 75.124 30.656 74.804 30.854 A 12.936 12.936 0 0 0 74.65 30.95 A 2.002 2.002 0 0 1 74.333 31.116 Q 73.954 31.271 73.6 31.2 A 1.871 1.871 0 0 1 73.238 31.084 Q 73.043 30.996 72.918 30.868 A 0.78 0.78 0 0 1 72.7 30.3 A 2.663 2.663 0 0 1 72.504 29.936 Q 72.226 29.328 71.886 28.106 A 35.118 35.118 0 0 1 71.75 27.6 Q 71.2 25.5 71.2 24.6 A 0.8 0.8 0 0 1 71.314 24.211 Q 71.57 23.753 72.4 23.2 A 105.622 105.622 0 0 1 75.436 21.015 Q 78.603 18.826 81.04 17.555 A 30.951 30.951 0 0 1 81.05 17.55 A 36.361 36.361 0 0 1 83.171 16.526 Q 85.397 15.544 87.15 15.2 Q 89.341 14.77 92.161 14.71 A 43.85 43.85 0 0 1 93.1 14.7 Q 103.1 14.7 106.55 21.15 A 25.903 25.903 0 0 1 108.784 27.092 Q 110 31.947 110 38.3 Q 110 40.444 109.883 43.76 A 340.428 340.428 0 0 1 109.8 45.9 Q 109.8 48.12 109.566 51.923 A 255.789 255.789 0 0 1 109.4 54.4 Z M 119.1 20.2 L 118.4 17.2 Q 118.2 16.6 118.2 16.4 Q 118.2 15.814 118.9 15.719 A 2.224 2.224 0 0 1 119.2 15.7 Q 119.54 15.7 119.995 15.769 A 9.989 9.989 0 0 1 120.45 15.85 Q 121.2 16 122 16 L 126.3 15.9 L 131.9 15.7 A 6.143 6.143 0 0 1 132.216 15.666 Q 133.455 15.566 133.9 16.1 Q 134.317 16.601 134.665 17.728 A 12.779 12.779 0 0 1 134.8 18.2 A 7.358 7.358 0 0 1 135.064 19.061 Q 135.579 21.071 136.363 26.366 A 288.384 288.384 0 0 1 136.5 27.3 L 137.1 31.1 A 65.249 65.249 0 0 0 137.592 34.071 Q 138.168 37.147 139.163 41.235 A 224.818 224.818 0 0 0 139.5 42.6 L 141.4 50.8 L 142.5 45.9 A 26.472 26.472 0 0 0 142.819 44.65 Q 143.272 42.704 143.859 39.318 A 224.216 224.216 0 0 0 144 38.5 A 7.541 7.541 0 0 1 144.104 37.788 Q 144.408 36.121 145.557 31.609 A 454.904 454.904 0 0 1 146.1 29.5 Q 148.5 20.6 148.4 18.6 A 12.326 12.326 0 0 1 148.37 18.22 Q 148.276 16.758 148.632 16.195 A 0.828 0.828 0 0 1 148.8 16 A 1.952 1.952 0 0 1 149.873 15.559 Q 150.002 15.545 150.139 15.545 A 2.906 2.906 0 0 1 150.3 15.55 Q 151.076 15.593 151.406 15.599 A 5.279 5.279 0 0 0 151.5 15.6 Q 159.36 15.6 161.792 15.775 A 16.575 16.575 0 0 1 162.1 15.8 Q 163.09 15.924 163.468 16.278 A 0.691 0.691 0 0 1 163.7 16.8 A 1.771 1.771 0 0 1 163.69 16.965 Q 163.664 17.236 163.567 17.757 A 28.851 28.851 0 0 1 163.5 18.1 A 16.483 16.483 0 0 0 163.155 19.103 Q 162.632 20.768 161.822 24.044 A 259.773 259.773 0 0 0 161.3 26.2 L 160.5 29.9 Q 157.947 41.977 156.166 47.691 A 60.092 60.092 0 0 1 156.1 47.9 Q 154.922 52.809 153.165 63.214 A 655.879 655.879 0 0 0 153.1 63.6 A 477.839 477.839 0 0 1 152.931 64.55 Q 152.738 65.633 152.465 67.141 A 2107.816 2107.816 0 0 1 152.2 68.6 A 197.948 197.948 0 0 1 151.989 69.743 Q 151.619 71.71 151.448 72.339 A 3.116 3.116 0 0 1 151.4 72.5 A 2.864 2.864 0 0 1 151.223 73.063 Q 150.854 73.892 150.017 73.9 A 1.712 1.712 0 0 1 150 73.9 L 148.5 73.8 Q 146.767 73.8 143.088 74.078 A 215.191 215.191 0 0 0 142.8 74.1 A 801.947 801.947 0 0 1 140.579 74.236 Q 136.645 74.471 135.374 74.497 A 13.67 13.67 0 0 1 135.1 74.5 A 4.332 4.332 0 0 1 134.499 74.462 Q 133.606 74.336 133.3 73.8 A 3.34 3.34 0 0 1 133.086 73.335 Q 132.817 72.629 132.6 71.4 Q 131.6 67.6 129.65 60.6 Q 127.974 54.584 126.631 49.75 A 12491.059 12491.059 0 0 1 126.2 48.2 Q 125.451 45.58 123.083 36.043 A 2188.397 2188.397 0 0 1 122.75 34.7 A 3355.293 3355.293 0 0 0 121.598 30.063 Q 119.866 23.109 119.1 20.2 Z M 482.166 76.199 A 43.983 43.983 0 0 0 482.4 76.2 A 35.202 35.202 0 0 0 485.807 76.039 A 28.691 28.691 0 0 0 492.65 74.55 Q 497.3 72.9 499.4 70.8 Q 500.075 70.275 500.356 69.919 A 1.3 1.3 0 0 0 500.5 69.7 A 0.032 0.032 0 0 0 500.502 69.696 Q 500.572 69.483 499.123 65.775 A 267.476 267.476 0 0 0 498.7 64.7 Q 498.419 64.208 498.113 63.37 A 20.945 20.945 0 0 1 497.85 62.6 Q 497.513 61.55 497.259 61.006 A 3.358 3.358 0 0 0 497.1 60.7 A 63.11 63.11 0 0 0 496.954 60.338 Q 496.286 58.697 495.833 57.868 A 5.491 5.491 0 0 0 495.55 57.4 Q 495.317 57.062 495.058 56.866 A 1.237 1.237 0 0 0 494.3 56.6 A 168.429 168.429 0 0 1 494.268 56.615 Q 490.393 58.502 488.65 59.1 Q 487.433 59.517 485.515 59.644 A 27.551 27.551 0 0 1 483.7 59.7 A 15.395 15.395 0 0 1 480.889 59.459 Q 475.919 58.535 474.123 54.072 A 14.481 14.481 0 0 1 473.2 50 Q 476.5 49.8 479.2 49.55 A 532.02 532.02 0 0 0 480.809 49.399 Q 481.575 49.325 482.263 49.257 A 268.88 268.88 0 0 0 483.8 49.1 Q 493.469 48.206 497.46 48.039 A 37.817 37.817 0 0 1 499 48 A 2.509 2.509 0 0 0 499.267 47.932 Q 500 47.7 500 47.1 Q 500 38.9 498.65 31.85 Q 497.3 24.8 492.65 19.5 A 14.013 14.013 0 0 0 489.95 17.119 Q 487.448 15.429 484.106 14.718 A 25.487 25.487 0 0 0 478.8 14.2 Q 473.9 14.2 469.05 16.9 A 15.436 15.436 0 0 0 466.751 18.474 Q 464.908 19.99 463.309 22.188 A 30.003 30.003 0 0 0 460.8 26.35 A 26.517 26.517 0 0 0 459.07 30.786 Q 458.21 33.704 457.793 37.201 A 60.085 60.085 0 0 0 457.4 44.3 Q 457.4 55.9 462.4 66.05 A 16.495 16.495 0 0 0 467.669 72.316 Q 473.052 76.151 482.166 76.199 Z M 281.1 73.9 L 273.4 74 A 2.752 2.752 0 0 1 272.853 73.95 Q 272.008 73.778 271.912 73.007 A 1.681 1.681 0 0 1 271.9 72.8 Q 271.9 72.4 271.95 70.1 Q 272 67.8 272 62.2 Q 272 56.5 272.35 51.2 Q 272.68 46.198 272.699 45.382 A 3.709 3.709 0 0 0 272.7 45.3 L 273.3 27.2 L 273.4 16.9 A 3.669 3.669 0 0 1 273.419 16.508 Q 273.498 15.78 273.9 15.7 A 9.957 9.957 0 0 1 274.176 15.705 Q 274.632 15.718 275.518 15.767 A 161.419 161.419 0 0 1 276.1 15.8 Q 277.715 15.895 280.143 15.9 A 131.758 131.758 0 0 0 280.4 15.9 Q 282.4 15.9 284.35 15.8 A 294.526 294.526 0 0 1 285.027 15.766 Q 286.375 15.7 286.7 15.7 A 0.535 0.535 0 0 1 287.009 15.802 Q 287.091 15.859 287.169 15.947 A 1.315 1.315 0 0 1 287.25 16.05 A 2.501 2.501 0 0 1 287.359 16.215 Q 287.456 16.377 287.486 16.499 A 0.423 0.423 0 0 1 287.5 16.6 L 287.7 19.4 A 32.07 32.07 0 0 1 291.889 17.131 A 41.604 41.604 0 0 1 295.65 15.65 Q 299.323 14.399 301.595 14.158 A 9.566 9.566 0 0 1 302.6 14.1 A 5.732 5.732 0 0 1 302.843 14.105 Q 303.209 14.12 303.371 14.187 A 0.429 0.429 0 0 1 303.4 14.2 A 0.318 0.318 0 0 1 303.496 14.283 Q 303.659 14.476 303.85 15.05 Q 304.006 15.518 304.143 15.889 A 16.043 16.043 0 0 0 304.3 16.3 Q 305.2 18.55 305.533 21.61 A 30.287 30.287 0 0 1 305.6 22.3 A 22.874 22.874 0 0 0 305.717 23.57 Q 305.808 24.338 305.955 25.199 A 42.116 42.116 0 0 0 306.1 26 Q 306.253 26.689 306.289 27.613 A 15.141 15.141 0 0 1 306.3 28.2 A 9.898 9.898 0 0 1 306.297 28.474 Q 306.283 28.97 306.214 29.082 A 0.099 0.099 0 0 1 306.2 29.1 A 3.855 3.855 0 0 1 304.528 30.488 A 5.232 5.232 0 0 1 303.8 30.75 A 17.426 17.426 0 0 1 302.718 31.013 Q 301.28 31.319 299.1 31.6 A 50.949 50.949 0 0 0 296.113 31.991 Q 294.703 32.221 293.477 32.517 A 27.014 27.014 0 0 0 292.4 32.8 L 288 33.8 L 288.1 37.8 A 180.377 180.377 0 0 0 288.102 38.575 Q 288.113 41.113 288.2 41.2 L 288.3 49.7 Q 288.453 54.753 288.489 62.62 A 1115.811 1115.811 0 0 1 288.5 67.7 Q 288.5 71.496 288.202 73.133 A 5.966 5.966 0 0 1 288.1 73.6 A 0.528 0.528 0 0 1 287.796 74.077 Q 287.407 74.298 286.518 74.3 A 7.205 7.205 0 0 1 286.5 74.3 Q 286.4 74.3 284.95 74.1 Q 283.5 73.9 281.1 73.9 Z M 47.8 64 L 47.9 57.8 L 48.4 46 L 48.7 37.2 L 48.7 17.8 A 218.178 218.178 0 0 1 48.706 16.1 Q 48.725 13.7 48.8 12.2 L 48.9 8.4 L 48.9 4.1 A 21.731 21.731 0 0 1 48.886 3.676 Q 48.85 2.021 49.109 1.198 A 2.073 2.073 0 0 1 49.25 0.85 Q 49.691 0.018 50.562 0 A 1.876 1.876 0 0 1 50.6 0 Q 50.925 0 51.166 0.042 A 1.641 1.641 0 0 1 51.4 0.1 L 51.6 0.1 A 2.661 2.661 0 0 0 51.718 0.097 Q 51.925 0.088 52.3 0.05 Q 52.688 0.011 53.015 0.123 A 1.478 1.478 0 0 1 53.2 0.2 A 4.424 4.424 0 0 1 53.955 0.376 Q 54.339 0.505 54.605 0.7 A 1.407 1.407 0 0 1 55.2 1.9 A 3.142 3.142 0 0 1 55.193 2.072 Q 55.163 2.575 55 4.2 A 94.917 94.917 0 0 0 54.506 9.538 Q 54.134 15.179 54.2 22.4 L 54.2 46.2 L 54 50.7 Q 53.847 54.681 53.811 57.314 A 109.607 109.607 0 0 0 53.8 58.8 L 53.8 60.8 Q 53.8 64 55.2 65.55 A 4.627 4.627 0 0 0 58.373 67.079 A 6.385 6.385 0 0 0 58.9 67.1 A 13.607 13.607 0 0 0 59.744 67.075 Q 60.325 67.039 60.8 66.95 Q 61.434 66.831 61.817 66.806 A 2.869 2.869 0 0 1 62 66.8 A 1.125 1.125 0 0 1 62.518 66.911 Q 63.1 67.209 63.1 68.3 L 63.7 72.4 A 8.688 8.688 0 0 1 62.65 73.241 Q 62.028 73.661 61.406 73.893 A 4.744 4.744 0 0 1 60.9 74.05 A 9.335 9.335 0 0 1 59.918 74.235 Q 58.719 74.4 57 74.4 A 21.478 21.478 0 0 1 54.908 74.305 Q 52.716 74.09 51.338 73.387 A 5.607 5.607 0 0 1 51 73.2 Q 49 72 48.4 69.85 A 13.331 13.331 0 0 1 48.071 68.272 Q 47.817 66.601 47.801 64.318 A 44.402 44.402 0 0 1 47.8 64 Z M 183.939 75.441 A 26.349 26.349 0 0 0 190.5 76.2 A 18.791 18.791 0 0 0 190.923 76.195 A 15.192 15.192 0 0 0 201.95 71.35 Q 206.6 66.5 208.85 59.35 A 52.603 52.603 0 0 0 209.938 55.364 A 43.884 43.884 0 0 0 211.1 45.5 Q 211.1 37.2 209.8 30.55 Q 208.5 23.9 203.8 19.05 A 13.995 13.995 0 0 0 200.63 16.608 Q 196.382 14.2 189.9 14.2 Q 185 14.2 180.15 16.9 A 15.436 15.436 0 0 0 177.851 18.474 Q 176.008 19.99 174.409 22.188 A 30.003 30.003 0 0 0 171.9 26.35 A 26.517 26.517 0 0 0 170.17 30.786 Q 169.31 33.704 168.893 37.201 A 60.085 60.085 0 0 0 168.5 44.3 Q 168.5 55.9 172.9 66.05 A 15.697 15.697 0 0 0 183.939 75.441 Z M 101.7 65.8 L 102 56.5 A 131.08 131.08 0 0 0 98.658 56.256 Q 97.012 56.159 95.565 56.122 A 65.913 65.913 0 0 0 93.9 56.1 L 88 56.2 A 21.343 21.343 0 0 0 83.049 56.753 A 17.627 17.627 0 0 0 79.4 58.05 Q 76.719 59.355 75.78 61.383 A 5.469 5.469 0 0 0 75.3 63.2 A 11.946 11.946 0 0 0 75.406 64.856 Q 75.681 66.814 76.668 67.808 A 3.24 3.24 0 0 0 77 68.1 Q 78.359 69.14 81.637 69.348 A 27.886 27.886 0 0 0 83.4 69.4 Q 93.008 69.4 100.117 66.497 A 31.634 31.634 0 0 0 101.7 65.8 Z M 189.8 56.8 A 5.461 5.461 0 0 0 192.07 56.346 Q 193.313 55.785 194.165 54.532 A 7.217 7.217 0 0 0 194.65 53.7 Q 196.108 50.785 196.194 46.72 A 24.331 24.331 0 0 0 196.2 46.2 Q 196.2 41.727 195.307 39.317 A 6.561 6.561 0 0 0 194.75 38.15 A 4.885 4.885 0 0 0 193.122 36.493 Q 191.975 35.8 190.4 35.8 A 5.102 5.102 0 0 0 185.523 39.043 Q 184.398 41.411 184.23 45.507 A 36.432 36.432 0 0 0 184.2 47 A 26.53 26.53 0 0 0 184.355 49.953 Q 184.516 51.389 184.845 52.611 A 13.142 13.142 0 0 0 185.3 54 Q 186.173 56.223 188.497 56.681 A 6.74 6.74 0 0 0 189.8 56.8 Z M 473.2 44.2 L 484.8 43.2 Q 484.137 33.752 480.795 32.134 A 3.386 3.386 0 0 0 479.3 31.8 A 4.126 4.126 0 0 0 475.947 33.479 Q 475.455 34.095 475.053 34.937 A 9.905 9.905 0 0 0 475 35.05 Q 473.531 38.232 473.213 43.955 A 51.63 51.63 0 0 0 473.2 44.2 Z" vector-effect="non-scaling-stroke"/></g></svg>